# xmcd
# Copyright (C) 1995-1998 Ti Kan
#
# Track frame offsets:
#       150
#       21600
#       39433
#       57033
#       72675
#       91332
#       110741
#       128196
#       144562
#       161001
#       183619
#       211445
#       238689
#
# Disc length: 3392 seconds
#
# Revision: 0
# Processed by: cddbd v1.5.2PL0 Copyright (c) Steve Scherf et al.
# Submitted via: CD-Transfer v1.0
#
DISCID=c70d3e0d
DTITLE=Iness - 
DYEAR=10
DGENRE=
TTITLE0=Dancing Queen
TTITLE1=Celebration
TTITLE2=I'm Every Woman
TTITLE3=Another One Bites The Dust
TTITLE4=Don't You Want Me
TTITLE5=You Keep Me Hanging On
TTITLE6=Physical
TTITLE7=High Energy (E-Base and Paul Wish Mix)
TTITLE8=Solid (Mos and K-Notes Mix)
TTITLE9=(I've Had) The Time Of My Life
TTITLE10=Another One Bites The Dust (Kosta Radman, D-Knock and Slow Mo' T Ext Mix)
TTITLE11=Physical (Kosta Radman, D-Knock and Slow Mo' T Ext Mix)
TTITLE12=You Keep Me Hanging On (Radio Mix)
EXTD=
EXTT0=
EXTT1=
EXTT2=
EXTT3=
EXTT4=
EXTT5=
EXTT6=
EXTT7=
EXTT8=
EXTT9=
EXTT10=
EXTT11=
EXTT12=
PLAYORDER=
